<svg xmlns="http://www.w3.org/2000/svg" viewBox="0 0 200 69.6" role="img" aria-label="Optik Dvořák">
  <title>Optik Dvořák — značka brýlí</title>
  <!-- Vektorový obrys značky ze skutečného loga optiky (public/img/logo-optik-dvorak.webp).
       Vytrasováno z rastru, proto je i v tisku ostré v jakékoli velikosti. -->
  <path fill="currentColor" fill-rule="evenodd" d="M41.7 0 56.2 0 62.2 0.5 74.6 2.5 90.1 6.3 98.4 7 109.9 6.3 125.4 2.5 137.9 0.5 143.8 0 158.1 0 172.5 1.5 191.8 5 196 6.5 198.5 8.8 199.8 13.3 200 20 199.5 22.7 198.7 24.5 194 30 189.7 43.9 185.5 52.5 181.7 58 177.5 62.4 174.8 64.4 169.1 67.4 160.5 69.4 145 69.4 137.9 68.6 130.3 66.4 126.3 64.1 121.6 59.9 116.1 51.9 112.1 43.4 106.4 27.5 104.9 25.9 101.1 25 95.9 25.5 93.9 27 91.9 31.5 87.4 44.7 83.4 52.9 77.6 60.9 74.4 63.7 71.7 65.4 66.6 67.6 59.7 68.9 50 69.6 39.7 69.4 31.4 67.6 24.4 63.7 18.8 58.5 14.3 52.2 10.2 43.2 6.8 31.7 5 28.5 1 23.9 0 20 0.5 11.5 1.5 9 3.3 7 6.8 5.3 28.5 1.3ZM43.2 10.7 34.5 11.5 28.9 12.8 24.9 14.5 21.7 17.5 20.9 19 19.8 23.5 19.8 29.4 20.9 37 21.9 41 23.9 46.7 26.9 52 29.9 55.4 33.5 57.9 37.4 59 43.9 59.9 51.4 59.9 56.4 59 61.1 58 65.9 55.9 70.1 52.4 73.9 47.4 76.9 41.4 79.1 34.4 80.4 26.4 80.4 20.5 79.9 19 77.9 16.5 74.6 14.5 69.7 12.8 56 10.8ZM147.6 10.7 135.4 11.8 130.3 12.8 124.8 14.8 122.3 16.5 119.9 19.5 119.6 26 120.9 34 122.9 40.7 126.6 48 130.6 53 134.3 55.9 138.9 58 146 59.5 152.1 59.9 160.5 59.4 166.1 58 169.6 55.9 173 52.4 176.1 46.9 179 38 180.2 30 180.2 23.2 179.5 20 178.1 17.2 176 15 174 13.8 167.6 11.8 160.5 10.8Z"/>
</svg>
