<svg xmlns="http://www.w3.org/2000/svg" viewBox="0 0 729.5 236.0" width="730" height="236" fill="none" role="img" aria-label="Optik Dvořák — oční optika Plzeň"><title>Optik Dvořák</title><rect width="729.5" height="236.0" fill="#0C0C0C"/><path d="M275.3,71.4 l-16.8,-6.4" fill="none" stroke="#F4F1EA" stroke-width="8.64" stroke-linecap="round"/><path d="M454.2,71.4 l16.8,-6.4" fill="none" stroke="#F4F1EA" stroke-width="8.64" stroke-linecap="round"/><circle cx="312.8" cy="74.0" r="40.0" fill="none" stroke="#F4F1EA" stroke-width="8.64"/><circle cx="416.8" cy="74.0" r="40.0" fill="none" stroke="#F4F1EA" stroke-width="8.64"/><path d="M356.2,71.6 C359.9,61.2 369.6,61.2 373.3,71.6" fill="none" stroke="#F5C518" stroke-width="8.64" stroke-linecap="round"/><circle cx="274.5" cy="71.4" r="3.97" fill="#F5C518"/><circle cx="455.0" cy="71.4" r="3.97" fill="#F5C518"/><path d="M295.4,65.3 Q300.4,49.2 317.7,51.2" fill="none" stroke="#F5C518" stroke-width="4.32" stroke-linecap="round" opacity="0.9"/><g transform="translate(41.50,174.00) scale(0.10000,-0.10000)" fill="#F4F1EA"><path transform="translate(0.0,0)" d="M360 -14Q288 -14 230.0 8.0Q172 30 130.5 73.0Q89 116 67.0 179.5Q45 243 45 327Q45 445 86.5 521.5Q128 598 201.0 636.0Q274 674 366 674Q437 674 495.0 652.0Q553 630 594.5 587.0Q636 544 658.5 479.5Q681 415 681 331Q681 244 657.5 179.5Q634 115 591.5 72.0Q549 29 490.0 7.5Q431 -14 360 -14ZM365 112Q414 112 447.5 136.5Q481 161 498.5 207.5Q516 254 516 321Q516 392 498.0 441.5Q480 491 445.5 516.5Q411 542 361 542Q313 542 279.5 517.5Q246 493 228.0 445.5Q210 398 210 329Q210 277 220.5 236.5Q231 196 250.0 168.5Q269 141 298.5 126.5Q328 112 365 112Z"/>
<path transform="translate(725.0,0)" d="M62 -169V258V528H194L196 378L214 376Q223 432 246.0 469.0Q269 506 305.5 524.0Q342 542 389 542Q459 542 509.5 508.0Q560 474 587.0 411.0Q614 348 614 260Q614 182 590.5 120.0Q567 58 519.5 22.0Q472 -14 399 -14Q350 -14 316.0 3.5Q282 21 258.5 55.0Q235 89 219 140H200Q206 113 211.0 85.0Q216 57 219.5 31.0Q223 5 223 -19V-169ZM340 113Q373 113 396.5 131.0Q420 149 433.0 182.0Q446 215 446 259Q446 306 432.5 339.5Q419 373 394.0 391.5Q369 410 336 410Q305 410 283.5 396.5Q262 383 248.5 361.5Q235 340 229.0 316.0Q223 292 223 271V249Q223 230 228.0 211.0Q233 192 243.0 174.5Q253 157 267.0 143.0Q281 129 299.5 121.0Q318 113 340 113Z"/>
<path transform="translate(1373.0,0)" d="M268 -13Q175 -13 131.0 36.5Q87 86 87 195V402H12L15 527H69Q101 528 117.5 537.0Q134 546 138 571L151 645H242V528H369V397H242V202Q242 168 258.5 152.0Q275 136 309 136Q328 136 345.0 140.0Q362 144 373 151V2Q341 -8 314.5 -10.5Q288 -13 268 -13Z"/>
<path transform="translate(1779.0,0)" d="M62 0V528H223V0ZM143 602Q97 602 72.5 621.5Q48 641 48 677Q48 715 72.5 734.5Q97 754 143 754Q190 754 214.5 734.5Q239 715 239 678Q239 641 214.5 621.5Q190 602 143 602Z"/>
<path transform="translate(2065.0,0)" d="M62 0V721H220V323Q249 344 274.5 368.0Q300 392 321.5 418.0Q343 444 360.5 471.5Q378 499 391 528H575Q562 489 539.0 450.5Q516 412 483.0 379.5Q450 347 404.5 324.0Q359 301 302 293V275Q374 289 420.5 275.5Q467 262 495.0 232.0Q523 202 538.0 162.0Q553 122 563 83L584 0H409L399 50Q389 99 375.5 134.0Q362 169 337.0 188.5Q312 208 265 208H220V0Z"/>
<path transform="translate(2893.0,0)" d="M144 0V130H335Q387 130 422.0 152.0Q457 174 474.5 218.0Q492 262 492 328Q492 381 481.0 419.0Q470 457 448.5 481.5Q427 506 393.5 518.0Q360 530 315 530H144V660H309Q432 660 510.0 621.0Q588 582 624.0 509.5Q660 437 660 336Q660 258 641.5 201.0Q623 144 591.0 105.5Q559 67 517.5 43.5Q476 20 430.5 10.0Q385 0 340 0ZM69 0V660H230V0Z"/>
<path transform="translate(3598.0,0)" d="M181 0 8 527H187L287 126H304L406 527H577L403 0Z"/>
<path transform="translate(4183.0,0)" d="M305 -14Q225 -14 163.5 17.0Q102 48 67.0 110.0Q32 172 32 265Q32 358 67.0 419.5Q102 481 164.0 511.5Q226 542 306 542Q386 542 448.0 511.0Q510 480 545.0 418.5Q580 357 580 264Q580 169 544.0 107.0Q508 45 445.5 15.5Q383 -14 305 -14ZM310 103Q346 103 370.0 119.5Q394 136 406.0 170.0Q418 204 418 254Q418 307 405.0 343.5Q392 380 366.5 399.5Q341 419 301 419Q267 419 242.5 402.5Q218 386 206.0 352.0Q194 318 194 267Q194 185 224.5 144.0Q255 103 310 103Z"/>
<path transform="translate(4795.0,0)" d="M62 0V245V528H194L197 349H217Q224 419 243.5 460.5Q263 502 299.5 521.0Q336 540 390 540Q398 540 408.0 539.5Q418 539 431 537L425 365Q409 373 390.5 375.5Q372 378 358 378Q319 378 290.5 363.0Q262 348 245.5 317.0Q229 286 224 239V0ZM58 791 227 700 397 791V674L227 584L58 674Z"/>
<path transform="translate(5241.0,0)" d="M186 -14Q142 -14 108.0 3.5Q74 21 55.0 54.5Q36 88 36 136Q36 181 53.5 210.5Q71 240 104.5 257.5Q138 275 185.0 286.5Q232 298 292 307Q321 312 340.5 316.5Q360 321 370.0 331.0Q380 341 380 360Q380 385 362.0 403.0Q344 421 304 421Q276 421 253.5 411.0Q231 401 215.0 382.0Q199 363 191 336L49 378Q62 420 85.5 451.0Q109 482 142.0 502.5Q175 523 217.5 532.5Q260 542 308 542Q388 542 438.5 516.5Q489 491 513.5 437.5Q538 384 538 300V219Q538 183 539.5 146.5Q541 110 543.5 73.5Q546 37 550 0H408Q404 23 400.0 55.5Q396 88 394 122H375Q361 84 334.5 52.5Q308 21 270.5 3.5Q233 -14 186 -14ZM259 100Q277 100 295.5 106.5Q314 113 331.0 124.5Q348 136 362.0 153.0Q376 170 383 190L381 269L403 264Q384 252 361.0 245.0Q338 238 314.5 234.0Q291 230 268.5 225.5Q246 221 228.5 214.0Q211 207 201.0 195.0Q191 183 191 162Q191 134 210.0 117.0Q229 100 259 100ZM354 595H233L309 769H466Z"/>
<path transform="translate(5836.0,0)" d="M62 0V721H220V323Q249 344 274.5 368.0Q300 392 321.5 418.0Q343 444 360.5 471.5Q378 499 391 528H575Q562 489 539.0 450.5Q516 412 483.0 379.5Q450 347 404.5 324.0Q359 301 302 293V275Q374 289 420.5 275.5Q467 262 495.0 232.0Q523 202 538.0 162.0Q553 122 563 83L584 0H409L399 50Q389 99 375.5 134.0Q362 169 337.0 188.5Q312 208 265 208H220V0Z"/></g><g transform="translate(156.96,206.00) scale(0.02083,-0.02083)" fill="#F5C518"><path transform="translate(0.0,0)" d="M300 -10Q234 -10 186.5 15.0Q139 40 113.5 87.5Q88 135 88 200V530Q88 596 113.5 643.0Q139 690 186.5 715.0Q234 740 300 740Q366 740 413.5 715.0Q461 690 486.5 643.0Q512 596 512 531V200Q512 135 486.5 87.5Q461 40 413.5 15.0Q366 -10 300 -10ZM300 71Q359 71 390.5 104.5Q422 138 422 200V530Q422 592 390.5 625.5Q359 659 300 659Q242 659 210.0 625.5Q178 592 178 530V200Q178 138 210.0 104.5Q242 71 300 71Z"/>
<path transform="translate(690.0,0)" d="M304 -10Q238 -10 189.5 15.0Q141 40 114.5 87.5Q88 135 88 200V530Q88 596 114.5 643.0Q141 690 189.5 715.0Q238 740 304 740Q370 740 418.0 714.5Q466 689 492.0 642.0Q518 595 518 530H428Q428 592 395.5 625.5Q363 659 304 659Q245 659 211.5 626.0Q178 593 178 531V200Q178 138 211.5 104.5Q245 71 304 71Q363 71 395.5 104.5Q428 138 428 200H518Q518 136 492.0 88.5Q466 41 418.0 15.5Q370 -10 304 -10ZM264 810 124 950H223L305 872L385 950H486L347 810Z"/>
<path transform="translate(1380.0,0)" d="M90 0V730H210L433 105Q431 130 428.5 166.5Q426 203 424.5 243.5Q423 284 423 320V730H510V0H390L168 625Q170 601 172.0 564.5Q174 528 175.5 487.5Q177 447 177 410V0Z"/>
<path transform="translate(2070.0,0)" d="M105 0V82H254V648H105V730H495V648H346V82H495V0ZM242 810 348 950H445L334 810Z"/>
<path transform="translate(3450.0,0)" d="M300 -10Q234 -10 186.5 15.0Q139 40 113.5 87.5Q88 135 88 200V530Q88 596 113.5 643.0Q139 690 186.5 715.0Q234 740 300 740Q366 740 413.5 715.0Q461 690 486.5 643.0Q512 596 512 531V200Q512 135 486.5 87.5Q461 40 413.5 15.0Q366 -10 300 -10ZM300 71Q359 71 390.5 104.5Q422 138 422 200V530Q422 592 390.5 625.5Q359 659 300 659Q242 659 210.0 625.5Q178 592 178 530V200Q178 138 210.0 104.5Q242 71 300 71Z"/>
<path transform="translate(4140.0,0)" d="M92 0V730H327Q395 730 445.0 703.5Q495 677 522.5 629.0Q550 581 550 515Q550 450 522.5 401.5Q495 353 445.0 326.5Q395 300 327 300H182V0ZM182 381H327Q386 381 421.5 417.5Q457 454 457 515Q457 577 421.5 613.0Q386 649 327 649H182Z"/>
<path transform="translate(4830.0,0)" d="M255 0V649H55V731H545V649H345V0Z"/>
<path transform="translate(5520.0,0)" d="M105 0V82H254V648H105V730H495V648H346V82H495V0Z"/>
<path transform="translate(6210.0,0)" d="M92 0V730H182V417H290L452 730H550L369 379L560 0H457L287 338H182V0Z"/>
<path transform="translate(6900.0,0)" d="M50 0 240 730H361L550 0H459L411 194H190L142 0ZM208 270H392L336 495Q320 559 311.0 602.0Q302 645 300 658Q298 645 289.0 602.0Q280 559 264 496Z"/>
<path transform="translate(8280.0,0)" d="M300 260Q262 260 239.5 282.0Q217 304 217 341Q217 380 239.5 403.0Q262 426 300 426Q338 426 360.5 403.0Q383 380 383 341Q383 304 360.5 282.0Q338 260 300 260Z"/>
<path transform="translate(9660.0,0)" d="M92 0V730H327Q395 730 445.0 703.5Q495 677 522.5 629.0Q550 581 550 515Q550 450 522.5 401.5Q495 353 445.0 326.5Q395 300 327 300H182V0ZM182 381H327Q386 381 421.5 417.5Q457 454 457 515Q457 577 421.5 613.0Q386 649 327 649H182Z"/>
<path transform="translate(10350.0,0)" d="M115 0V730H205V82H535V0Z"/>
<path transform="translate(11040.0,0)" d="M85 0V90L414 648H90V730H505V640L176 82H515V0Z"/>
<path transform="translate(11730.0,0)" d="M100 0V730H520V648H189V422H485V341H189V82H520V0Z"/>
<path transform="translate(12420.0,0)" d="M90 0V730H210L433 105Q431 130 428.5 166.5Q426 203 424.5 243.5Q423 284 423 320V730H510V0H390L168 625Q170 601 172.0 564.5Q174 528 175.5 487.5Q177 447 177 410V0ZM259 810 119 950H218L300 872L380 950H481L342 810Z"/>
<path transform="translate(13800.0,0)" d="M300 260Q262 260 239.5 282.0Q217 304 217 341Q217 380 239.5 403.0Q262 426 300 426Q338 426 360.5 403.0Q383 380 383 341Q383 304 360.5 282.0Q338 260 300 260Z"/>
<path transform="translate(15180.0,0)" d="M300 -10Q234 -10 186.5 15.0Q139 40 113.5 87.5Q88 135 88 200V530Q88 596 113.5 643.0Q139 690 186.5 715.0Q234 740 300 740Q366 740 413.5 715.0Q461 690 486.5 643.0Q512 596 512 531V200Q512 135 486.5 87.5Q461 40 413.5 15.0Q366 -10 300 -10ZM300 71Q359 71 390.5 104.5Q422 138 422 200V530Q422 592 390.5 625.5Q359 659 300 659Q242 659 210.0 625.5Q178 592 178 530V200Q178 138 210.0 104.5Q242 71 300 71Z"/>
<path transform="translate(15870.0,0)" d="M92 0V730H281Q352 730 403.5 703.0Q455 676 483.5 627.0Q512 578 512 511V220Q512 153 483.5 103.5Q455 54 403.5 27.0Q352 0 281 0ZM182 80H281Q347 80 384.5 117.0Q422 154 422 220V511Q422 576 384.5 613.0Q347 650 281 650H182Z"/>
<path transform="translate(17250.0,0)" d="M90 0V82H288V655L90 507V607L255 730H378V82H540V0Z"/>
<path transform="translate(17940.0,0)" d="M187 0 394 332 390 335Q371 307 338.0 292.0Q305 277 264 277Q205 277 160.5 305.0Q116 333 92.0 384.5Q68 436 68 505Q68 576 97.0 628.5Q126 681 178.0 710.5Q230 740 299 740Q369 740 421.5 710.5Q474 681 503.0 628.5Q532 576 532 505Q532 450 516.5 397.0Q501 344 470 295L287 0ZM300 350Q364 350 403.0 392.5Q442 435 442 505Q442 575 403.0 617.5Q364 660 300 660Q236 660 197.0 617.5Q158 575 158 505Q158 435 197.0 392.5Q236 350 300 350Z"/>
<path transform="translate(18630.0,0)" d="M187 0 394 332 390 335Q371 307 338.0 292.0Q305 277 264 277Q205 277 160.5 305.0Q116 333 92.0 384.5Q68 436 68 505Q68 576 97.0 628.5Q126 681 178.0 710.5Q230 740 299 740Q369 740 421.5 710.5Q474 681 503.0 628.5Q532 576 532 505Q532 450 516.5 397.0Q501 344 470 295L287 0ZM300 350Q364 350 403.0 392.5Q442 435 442 505Q442 575 403.0 617.5Q364 660 300 660Q236 660 197.0 617.5Q158 575 158 505Q158 435 197.0 392.5Q236 350 300 350Z"/>
<path transform="translate(19320.0,0)" d="M90 0V82H288V655L90 507V607L255 730H378V82H540V0Z"/></g></svg>