<?xml version="1.0" encoding="UTF-8" standalone="no"?>
<!-- Created with Inkscape (http://www.inkscape.org/) -->

<svg
   xmlns:dc="http://purl.org/dc/elements/1.1/"
   xmlns:cc="http://creativecommons.org/ns#"
   xmlns:rdf="http://www.w3.org/1999/02/22-rdf-syntax-ns#"
   xmlns:svg="http://www.w3.org/2000/svg"
   xmlns="http://www.w3.org/2000/svg"
   xmlns:sodipodi="http://sodipodi.sourceforge.net/DTD/sodipodi-0.dtd"
   xmlns:inkscape="http://www.inkscape.org/namespaces/inkscape"
   width="79.375mm"
   height="33.016037mm"
   viewBox="0 0 79.375 33.016037"
   version="1.1"
   id="svg7692"
   inkscape:version="0.92.4 (5da689c313, 2019-01-14)"
   sodipodi:docname="Silhouette International logo 2018.svg">
  <defs
     id="defs7686">
    <clipPath
       clipPathUnits="userSpaceOnUse"
       id="clipPath784">
      <path
         d="M 0,0 H 595.276 V 595.276 H 0 Z"
         id="path782"
         inkscape:connector-curvature="0" />
    </clipPath>
  </defs>
  <sodipodi:namedview
     id="base"
     pagecolor="#ffffff"
     bordercolor="#666666"
     borderopacity="1.0"
     inkscape:pageopacity="0.0"
     inkscape:pageshadow="2"
     inkscape:zoom="0.35"
     inkscape:cx="550.10128"
     inkscape:cy="-368.92024"
     inkscape:document-units="mm"
     inkscape:current-layer="layer1"
     showgrid="false"
     fit-margin-top="0"
     fit-margin-left="0"
     fit-margin-right="0"
     fit-margin-bottom="0"
     inkscape:window-width="1858"
     inkscape:window-height="1057"
     inkscape:window-x="54"
     inkscape:window-y="-8"
     inkscape:window-maximized="1" />
  <metadata
     id="metadata7689">
    <rdf:RDF>
      <cc:Work
         rdf:about="">
        <dc:format>image/svg+xml</dc:format>
        <dc:type
           rdf:resource="http://purl.org/dc/dcmitype/StillImage" />
        <dc:title></dc:title>
      </cc:Work>
    </rdf:RDF>
  </metadata>
  <g
     inkscape:label="Ebene 1"
     inkscape:groupmode="layer"
     id="layer1"
     transform="translate(39.714296,-18.207151)">
    <g
       transform="matrix(1.1200685,0,0,-1.1200685,-68.288924,123.10123)"
       id="g7636">
      <g
         id="g7597">
        <path
           d="m 30.758,64.235 h 0.338 v 3.993 h -0.338 z"
           style="fill:#000000;fill-opacity:1;fill-rule:nonzero;stroke:none"
           id="path738"
           inkscape:connector-curvature="0" />
        <g
           id="g740"
           transform="translate(36.308,68.2278)">
          <path
             d="M 0,0 V -3.57 H -0.011 L -1.657,0 h -0.454 v -3.993 h 0.336 v 3.479 h 0.011 l 1.617,-3.479 H 0.337 V 0 Z"
             style="fill:#000000;fill-opacity:1;fill-rule:nonzero;stroke:none"
             id="path742"
             inkscape:connector-curvature="0" />
        </g>
        <g
           id="g744"
           transform="translate(39.2274,68.2278)">
          <path
             d="m 0,0 v -0.317 h 0.922 v -3.676 h 0.336 v 3.676 H 2.18 V 0 Z"
             style="fill:#000000;fill-opacity:1;fill-rule:nonzero;stroke:none"
             id="path746"
             inkscape:connector-curvature="0" />
        </g>
        <g
           id="g748"
           transform="translate(44.0021,68.2278)">
          <path
             d="m 0,0 v -3.993 h 1.768 v 0.32 H 0.337 v 1.615 H 1.656 V -1.74 H 0.337 v 1.423 H 1.724 V 0 Z"
             style="fill:#000000;fill-opacity:1;fill-rule:nonzero;stroke:none"
             id="path750"
             inkscape:connector-curvature="0" />
        </g>
        <g
           id="g752"
           transform="translate(55.8134,68.2278)">
          <path
             d="M 0,0 V -3.57 H -0.012 L -1.657,0 h -0.455 v -3.993 h 0.337 v 3.479 h 0.011 l 1.617,-3.479 H 0.337 V 0 Z"
             style="fill:#000000;fill-opacity:1;fill-rule:nonzero;stroke:none"
             id="path754"
             inkscape:connector-curvature="0" />
        </g>
        <g
           id="g756"
           transform="translate(60.1992,67.9442)">
          <path
             d="m 0,0 h 0.012 l 0.65,-2.101 h -1.251 z m -0.186,0.284 -1.229,-3.993 h 0.331 l 0.394,1.291 H 0.759 L 1.168,-3.709 H 1.499 L 0.248,0.284 Z"
             style="fill:#000000;fill-opacity:1;fill-rule:nonzero;stroke:none"
             id="path758"
             inkscape:connector-curvature="0" />
        </g>
        <g
           id="g760"
           transform="translate(63.7389,68.2278)">
          <path
             d="m 0,0 v -0.317 h 0.921 v -3.676 h 0.335 v 3.676 H 2.179 V 0 Z"
             style="fill:#000000;fill-opacity:1;fill-rule:nonzero;stroke:none"
             id="path762"
             inkscape:connector-curvature="0" />
        </g>
        <path
           d="m 68.523,64.235 h 0.338 v 3.993 h -0.338 z"
           style="fill:#000000;fill-opacity:1;fill-rule:nonzero;stroke:none"
           id="path764"
           inkscape:connector-curvature="0" />
        <g
           id="g766"
           transform="translate(79.3902,68.2278)">
          <path
             d="M 0,0 V -3.57 H -0.01 L -1.657,0 H -2.11 v -3.993 h 0.335 v 3.479 h 0.012 l 1.616,-3.479 H 0.338 V 0 Z"
             style="fill:#000000;fill-opacity:1;fill-rule:nonzero;stroke:none"
             id="path768"
             inkscape:connector-curvature="0" />
        </g>
        <g
           id="g770"
           transform="translate(83.7762,67.9442)">
          <path
             d="m 0,0 h 0.012 l 0.652,-2.101 h -1.253 z m -0.185,0.284 -1.228,-3.993 h 0.33 l 0.394,1.291 H 0.76 L 1.169,-3.709 H 1.5 L 0.247,0.284 Z"
             style="fill:#000000;fill-opacity:1;fill-rule:nonzero;stroke:none"
             id="path772"
             inkscape:connector-curvature="0" />
        </g>
        <g
           id="g774"
           transform="translate(87.9154,68.2278)">
          <path
             d="m 0,0 v -3.993 h 1.713 v 0.32 H 0.338 V 0 Z"
             style="fill:#000000;fill-opacity:1;fill-rule:nonzero;stroke:none"
             id="path776"
             inkscape:connector-curvature="0" />
        </g>
      </g>
      <g
         id="g778">
        <g
           clip-path="url(#clipPath784)"
           id="g780">
          <g
             transform="translate(73.0793,64.5019)"
             id="g786">
            <path
               inkscape:connector-curvature="0"
               id="path788"
               style="fill:#000000;fill-opacity:1;fill-rule:nonzero;stroke:none"
               d="M 0,0 C 0.819,0 0.953,1.036 0.953,1.747 0.953,2.454 0.819,3.461 0,3.461 -0.82,3.461 -0.957,2.454 -0.957,1.747 -0.957,1.036 -0.82,0 0,0 m -1.327,1.731 c 0,0.954 0.276,2.06 1.344,2.06 1.067,0 1.307,-1.106 1.307,-2.06 0,-0.955 -0.24,-2.06 -1.307,-2.06 -1.068,0 -1.344,1.105 -1.344,2.06" />
          </g>
          <g
             transform="translate(48.9275,66.3601)"
             id="g790">
            <path
               inkscape:connector-curvature="0"
               id="path792"
               style="fill:#000000;fill-opacity:1;fill-rule:nonzero;stroke:none"
               d="m 0,0 h 0.303 c 0.545,0 1.078,0.185 1.078,0.844 0,0.702 -0.673,0.707 -0.938,0.707 H 0 Z m -0.337,1.868 h 0.815 c 0.477,0 1.24,-0.12 1.24,-1.024 0,-0.889 -0.701,-0.972 -0.78,-0.995 v -0.01 C 1.444,-0.288 1.499,-0.608 1.584,-1.048 L 1.803,-2.123 H 1.466 L 1.269,-1.18 C 1.157,-0.632 1.05,-0.318 0.466,-0.318 H 0 v -1.805 h -0.337 z" />
          </g>
          <g
             transform="translate(94.7707,88.7827)"
             id="g794">
            <path
               inkscape:connector-curvature="0"
               id="path796"
               style="fill:#000000;fill-opacity:1;fill-rule:nonzero;stroke:none"
               d="m 0,0 c -0.886,0 -1.607,0.721 -1.607,1.607 0,0.887 0.721,1.608 1.607,1.608 0.886,0 1.607,-0.721 1.607,-1.608 C 1.607,0.721 0.886,0 0,0 m 0,3.003 c -0.769,0 -1.395,-0.626 -1.395,-1.396 0,-0.769 0.626,-1.395 1.395,-1.395 0.769,0 1.395,0.626 1.395,1.395 0,0.77 -0.626,1.396 -1.395,1.396" />
          </g>
          <g
             transform="translate(95.4937,89.5693)"
             id="g798">
            <path
               inkscape:connector-curvature="0"
               id="path800"
               style="fill:#000000;fill-opacity:1;fill-rule:nonzero;stroke:none"
               d="M 0,0 H -0.355 L -0.72,0.712 H -1.015 V 0 H -1.32 v 1.732 h 0.693 c 0.335,0 0.559,-0.207 0.559,-0.515 0,-0.224 -0.125,-0.395 -0.336,-0.461 z m -1.015,0.973 h 0.368 c 0.169,0 0.274,0.092 0.274,0.242 0,0.151 -0.105,0.244 -0.274,0.244 h -0.368 z" />
          </g>
          <g
             transform="translate(29.2405,82.0956)"
             id="g802">
            <path
               inkscape:connector-curvature="0"
               id="path804"
               style="fill:#000000;fill-opacity:1;fill-rule:nonzero;stroke:none"
               d="M 0,0 C -2.054,0.523 -1.578,2.427 0.112,3.096 1.4,3.605 1.758,3.75 9.618,3.75 c 5.975,0 8.431,-0.045 8.431,-0.045 l 0.771,1.118 c 0,0 -1.624,0.142 -6.575,0.121 C 8.474,4.929 -1.866,5.147 -1.935,1.509 -1.994,-1.653 3.051,-1.928 8.707,-1.928 c 5.657,0 6.441,-1.241 6.441,-2.057 0,-0.636 -0.212,-2.985 -6.335,-2.985 -6.122,0 -11.525,0.318 -11.525,0.318 l -1.017,-1.441 c 0,0 7.373,-0.106 9.28,-0.148 C 7.457,-8.284 15.72,-8.4 15.72,-4.015 15.72,0.636 5.283,-1.345 0,0" />
          </g>
          <g
             transform="translate(88.7563,74.2817)"
             id="g806">
            <path
               inkscape:connector-curvature="0"
               id="path808"
               style="fill:#000000;fill-opacity:1;fill-rule:nonzero;stroke:none"
               d="m 0,0 c -0.54,0.001 -1.631,0.082 -2.24,1.208 0.705,1.126 1.309,2.572 1.71,3.914 0.777,2.599 0.273,3.83 0.273,3.83 l -1.299,0.931 c 0,0 -1.937,-1.059 -2.17,-4.145 -0.142,-1.872 0.308,-3.504 0.835,-4.442 -0.519,-0.733 -0.942,-1.259 -1.5,-1.259 -1.439,0 -1.802,4.11 -1.294,8.334 0.14,1.163 0.515,3.347 0.515,3.347 l 10.406,-0.244 0.886,1.3 H -4.981 c 0.372,2.017 0.694,3.435 0.694,3.435 l -1.104,0.794 c 0,0 -0.478,-1.573 -0.941,-4.229 h -2.087 c 0.378,2.053 0.706,3.435 0.706,3.435 l -1.105,0.794 c 0,0 -0.454,-1.697 -0.889,-4.229 h -21.797 c 0.733,3.399 0.738,5.362 0.738,5.362 l -1.393,1.206 c 0,0 -2.042,-1.749 -3.246,-8.593 -0.469,-2.67 -0.693,-6.036 -0.689,-7.678 0,0 -0.772,-3.123 -2.13,-3.081 -0.61,0.019 -0.842,0.839 -1.036,2.095 0.491,1.054 0.917,2.267 1.239,3.341 h -0.003 c 0.265,0.883 1.046,3.519 1.356,4.931 1.065,4.855 0.765,7.769 0.765,7.769 l -1.501,1.242 c 0,0 -2.104,-1.735 -2.608,-8.616 -0.102,-1.394 -0.409,-5.887 0.12,-8.781 -0.56,-1.076 -1.174,-1.945 -1.785,-1.945 -0.957,0 -0.977,2.928 -0.897,4.613 0.11,2.323 0.518,3.72 0.518,3.72 l -0.977,0.664 c 0,0 -0.507,-2.47 -0.422,-4.945 0.084,-2.419 0.225,-4.662 1.791,-4.662 0.734,0 1.378,0.767 1.947,1.775 0.293,-1.067 0.751,-1.751 1.448,-1.775 1.053,-0.037 1.726,0.968 2.193,1.97 0.071,-1 0.243,-1.827 0.243,-1.827 h 0.442 c 0,0 -0.255,2.118 1.446,5.63 0.857,1.769 1.315,2.765 2.8,3.411 0,0 -0.437,-0.785 -0.927,-3.713 -0.507,-3.03 0.515,-5.476 1.976,-5.476 1,0 1.5,1.177 1.714,1.904 0.355,-1.151 0.986,-1.904 1.781,-1.904 0.992,0 2.123,1.963 2.407,3.859 0.268,-0.151 0.484,-0.157 0.611,-0.157 0.478,0 0.947,0.458 1.234,0.944 -0.118,-2.447 0.454,-4.641 1.427,-4.641 1.206,0 1.858,1.817 2.059,2.345 0.224,-0.715 0.997,-2.345 2.204,-2.345 0.553,0 1.137,0.4 1.695,1.032 0.463,-0.845 1.103,-1.032 1.666,-1.032 1.617,0 2.728,3.086 2.81,3.322 0.091,-1.659 0.538,-3.322 1.967,-3.322 1.494,0 1.957,2.509 1.957,2.509 0.399,-1.195 1.097,-2.509 2.164,-2.509 0.636,0 1.27,0.528 1.85,1.33 0.989,-1.337 2.361,-1.332 2.602,-1.332 4.548,0 5.812,4.971 5.812,4.971 L 5.31,5.086 C 5.31,5.086 4.082,-0.011 0,0 m -39.13,10.786 c 0.339,3.107 1.587,7.06 2.189,7.033 0.766,-0.033 0.326,-3.929 -0.327,-7.329 -0.291,-1.517 -0.985,-4.082 -1.23,-4.973 l -0.004,10e-4 c -0.177,-0.65 -0.483,-1.538 -0.856,-2.409 -0.199,3.021 0.182,7.256 0.228,7.677 m 3.847,-7.374 c 0.026,3.015 0.685,6.951 0.762,7.37 0.57,3.099 2.11,7.042 2.71,7.016 0.763,-0.034 0.034,-3.92 -0.872,-7.311 -0.403,-1.513 -2.012,-5.675 -2.6,-7.075 m 8.689,-3.354 c -0.93,0 -1.402,2 -0.997,4.686 0.386,2.559 1.629,4.204 2.326,4.227 0.147,0.005 0.474,-0.187 0.461,-1.127 -0.049,-0.093 -0.437,-0.753 -0.445,-2.222 -0.004,-0.781 0.146,-1.417 0.478,-1.833 0.004,-0.006 0.009,-0.012 0.014,-0.018 -0.399,-2.411 -1.17,-3.713 -1.837,-3.713 m 11.8,1.604 c -0.181,0.992 -0.096,2.276 0.105,3.615 0.247,1.653 1.02,3.689 1.569,3.689 0.698,0 0.444,-1.965 0.034,-3.787 -0.224,-0.996 -0.928,-2.405 -1.708,-3.517 m 4.307,2.597 c -0.11,-0.332 -1.435,-4.23 -2.838,-4.23 -0.616,0 -1.012,0.334 -1.255,0.895 0.853,1.151 1.609,2.74 2.045,4.198 0.777,2.599 0.273,3.83 0.273,3.83 l -1.299,0.931 c 0,0 -1.948,-1.289 -2.219,-4.763 -0.135,-1.734 0.105,-3.055 0.564,-4.032 -0.512,-0.617 -1.04,-1.068 -1.443,-1.068 -0.929,0 -1.588,1.642 -1.473,2.69 0.265,2.4 1.166,5.615 1.166,5.615 l -0.914,0.683 c 0,0 -0.645,-2.891 -0.912,-4.324 -0.469,-2.517 -1.25,-4.697 -2.133,-4.696 -0.939,0 -0.497,3.879 -0.374,4.957 0.164,1.439 0.898,3.938 0.898,3.938 l -0.911,0.668 c 0,0 -0.408,-1.84 -0.662,-2.93 -0.248,-1.07 -0.693,-2.938 -1.57,-2.937 -0.494,10e-4 -0.834,0.895 -0.613,2.116 0.191,1.053 0.32,1.395 0.32,1.395 l -0.356,0.242 c 0,0 -0.011,0.212 -0.093,0.768 -0.082,0.561 -0.175,0.778 -0.175,0.778 l -1.274,0.899 c 0,0 -2.165,-0.403 -2.838,-5.005 -0.138,-0.948 -0.134,-1.847 -0.017,-2.631 -0.199,-1.07 -0.623,-2.217 -1.523,-2.217 -0.932,0 -1.32,2.044 -0.915,4.73 0.386,2.559 1.571,4.781 1.571,4.781 0,0 -0.909,0.08 -1.869,-0.393 -0.686,-0.338 -1.188,-0.841 -1.549,-1.218 0.272,0.768 0.544,1.547 0.782,2.425 0.19,0.703 0.353,1.365 0.493,1.983 l 21.738,-0.509 c -0.342,-2.197 -0.634,-4.87 -0.625,-7.569 m 3.595,4.409 C -7.189,4.832 -6.853,2.976 -6.853,2.976 -7.2,1.74 -7.657,0.029 -8.504,0.029 c -0.811,0 -1.347,2.169 -0.608,8.342 0.146,1.218 0.339,2.383 0.519,3.427 L -6.5,11.749 C -6.644,10.821 -6.806,9.791 -6.892,8.668 m 4.208,-3.391 c 0.166,1.663 1.02,3.689 1.569,3.689 0.699,0 0.444,-1.965 0.035,-3.787 C -1.29,4.245 -1.856,2.954 -2.511,1.876 -2.744,2.65 -2.841,3.709 -2.684,5.277" />
          </g>
          <g
             transform="translate(46.4676,88.5956)"
             id="g810">
            <path
               inkscape:connector-curvature="0"
               id="path812"
               style="fill:#000000;fill-opacity:1;fill-rule:nonzero;stroke:none"
               d="m 0,0 c 0.127,-0.217 0.265,-0.364 0.515,-0.364 0,0 0.157,0.145 0.303,0.693 C 0.902,0.621 0.957,1.016 0.965,1.534 0.97,1.821 0.84,2.115 0.745,2.278 0.618,2.495 0.455,2.623 0.242,2.623 c 0,0 -0.24,-0.179 -0.371,-0.934 C -0.198,1.293 -0.215,0.997 -0.22,0.712 -0.225,0.383 -0.07,0.119 0,0" />
          </g>
        </g>
      </g>
    </g>
  </g>
</svg>
